<?xml version="1.0" encoding="utf-8"?>
<!-- Generator: Adobe Illustrator 27.4.1, SVG Export Plug-In . SVG Version: 6.00 Build 0)  -->
<svg version="1.1" id="Layer_1" xmlns="http://www.w3.org/2000/svg" xmlns:xlink="http://www.w3.org/1999/xlink" x="0px" y="0px"
	 viewBox="0 0 640 478" style="enable-background:new 0 0 640 478;" xml:space="preserve">
<style type="text/css">
	.st0{fill:#FFFFFF;stroke:#FFFFFF;stroke-miterlimit:10;}
</style>
<g id="Royal-Escapes">
	<g id="Sort" transform="translate(18.000000, 56.000000)">
		<path id="r" class="st0" d="M100.8,184.1v-0.8c-1.6,0-2.3-1.1-2.3-3.4v-65.2h10l10.3,61.4c0.2,2.3-0.4,3.4-2,3.4v0.8l11.2-1.9
			l-0.3-0.8c-1.6,0-2.4-1.1-2.7-3.4l-10.3-60.3c3.6-1,6.1-2.8,7.6-5.3s2.2-5.3,2.1-8.2c0-1.9-0.3-3.7-0.8-5.5s-1.4-3.3-2.7-4.7
			c-1.2-1.3-2.8-2.4-4.8-3.1c-2-0.8-4.5-1.1-7.5-1.1H90v0.6c1.6,0,2.3,1.2,2.3,3.6v91.6c0,2.3-0.8,3.4-2.3,3.4v0.8L100.8,184.1z
			 M107.7,110H98V91h9.7c2.6,0,5,0.6,7.1,1.7c2.1,1.2,3.2,3.8,3.2,7.9c0,1.9-0.3,3.5-0.9,4.8s-1.4,2.2-2.4,2.9s-2.1,1.1-3.3,1.3
			C110.1,109.9,108.9,110,107.7,110L107.7,110z"/>
		<path id="o" class="st0" d="M155.9,173c6.9,0,11.8-3.1,14.7-10.9c2.9-7.8,4.4-18.7,4.4-32.7c0-14.1-1.5-25-4.4-32.8
			S162.8,85,155.9,85c-6.8,0-11.6,3.9-14.5,11.6c-2.8,7.8-4.3,18.7-4.4,32.8c-0.1,14,1.3,24.9,4.3,32.7S149.1,173,155.9,173z
			 M156.4,169c-2.3,0-4.2-0.9-5.8-2.8c-1.6-1.9-2.9-4.6-3.8-8.1s-1.7-7.7-2.1-12.5c-0.4-4.8-0.7-10.2-0.7-16.2c0-12,1-21.6,2.9-28.7
			S152,90,156.5,90c4.6,0,7.8,3.6,9.8,10.7s2.9,16.7,2.8,28.7c0,6-0.2,11.4-0.7,16.2s-1.2,9-2.2,12.5s-2.3,6.2-3.8,8.1
			C160.6,168.1,158.7,169,156.4,169z"/>
		<path id="y" class="st0" d="M203.7,165.9v-0.7c-1.7,0-2.5-1-2.5-3v-51.1l10.5-21.4c0.4-0.9,1-1.6,1.6-2.2s1.4-0.9,2.2-0.9v-0.5
			h-11.1v0.5c1.8,0,2.1,1.1,1,3.2l-7.3,14.9l-7-14.9c-1.1-2.1-0.8-3.2,0.8-3.2v-0.5H181v0.5c1.4,0,2.7,1.1,3.8,3.2l10.3,21.4V164
			c0,2-0.8,3-2.3,3v0.7L203.7,165.9z"/>
		<path id="a" class="st0" d="M232.2,161.3v-0.7c-1.6,0-2.4-1-2.1-3l5.9-46.4h16.3l5.9,42.3c0,2-0.7,3-2.1,3v0.7l11-1.7v-0.7
			c-1.8,0-2.6-1-2.6-3l-8.2-62.1c-0.1-2,0.5-3,2-3V86H230v0.8c1.4,0,2,1,1.8,3l-7.9,69.6c-0.2,2-1.2,3-3,3v0.7L232.2,161.3z
			 M251,106h-15l1.6-16h11.7L251,106z"/>
		<path id="l" class="st0" d="M304.3,148.5l4.3-7l-0.7-0.5c-0.9,1.2-2,2-3.2,2.5c-1.3,0.4-2.7,0.7-4.2,0.7l-11.8,1.7V89.8
			c0-2.1,0.8-3.2,2.3-3.2v-0.5h-10.8v0.5c1.4,0,2.2,1.1,2.2,3.2v56.7c0,2-0.7,6.3-2.2,6.3v0.7L304.3,148.5z"/>
		<polygon id="E" class="st0" points="81.7,266.1 81.2,240.5 45.7,239.6 46.2,221.1 66.1,221.6 66.5,199.8 46.2,198.8 47.6,180.2 
			79.3,180.2 78.4,154.1 19.1,157 19.1,266.6 		"/>
		<path id="S" class="st0" d="M118.6,266.6l0.4-0.6c4.4-0.1,8.6-0.8,12.5-2.2c3.9-1.4,7.3-3.4,10-5.9c2.8-2.5,4.9-5.4,6.5-8.7
			s2.4-4.4,2.4-8c-0.1-3.5-0.9-6.6-2.5-9.1s-3.5-4.4-5.9-5.6s-5-2.2-7.9-3s-5.6-1.3-8.2-1.7c-2.6-0.3-4.8-0.7-6.9-1.2
			c-2-0.5-3.3-1.1-4-1.9c-1.1-1.9-1.4-3.7-0.8-5.6c0.6-1.8,1.6-3.3,3.3-4.6c1.6-1.3,3.1-1.8,4.3-1.5c1.3,0.2,2.2,1,2.7,2.3
			c0.6,1.3,0.7,2.4,0.6,3.4c-0.2,1-0.2,1.6-0.1,1.7l20.9-3.5c0.4-6-0.6-11.1-2.8-15.3c-1.8-3.3-3.7-4.9-6.2-6.1
			c-2.4-1.1-5.3-2-10.9-1.4c-11.7,1.2-17.3,1.2-22,4c-8.7,5.2-12.7,15.1-13.4,26c-0.2,3.5,0.5,4.9,2.2,7.6c1.7,2.7,4,4.2,6.8,5.6
			c2.8,1.5,5.8,2.7,9,3.8s6.2,2,9,2.5l0.4,0.1c2.6,0.6,4.7,1.2,6.3,2c1.7,0.8,2.4,1.7,2.1,2.6c-0.6,2-2.6,3-6.1,3s-7.3-0.7-11.3-2.2
			s-7.1-3.3-9.2-5.4l-10.6,17.7c5,3.5,10,6.2,15.3,8c5.2,1.8,10,2.6,14.4,2.5L118.6,266.6z"/>
		<path id="C" class="st0" d="M195.6,266.6c8,0,15.1-2.3,21.5-6.9s10.5-10.8,12.4-18.5l-26.4-6.7l-0.4,1c-0.3,0.6-0.7,1.3-1.3,2.3
			s-1.2,1.9-1.9,2.8c-0.7,0.9-1.6,1.8-2.6,2.5s-2,1.2-3.1,1.4c-4.4,0.5-7.4-3.8-9-12.9c-1.5-9.1-1.4-12.8,0.5-22.2
			s4.7-14.2,8.5-14.5c2-0.1,3.8,0.3,5.1,1.2c1.4,0.9,2.3,1.9,2.8,3.1s0.9,2.6,1.1,4.2c0.2,1.6,0.3,2.7,0.3,3.3s-0.1,1.1-0.2,1.6
			l25-10.4c-0.2-2.5-0.9-5.1-2.2-7.9s-3.1-5.6-5.4-8.4c-1.1-1.3-2-2-2.9-2.6c-0.9-0.7-1.9-1.3-4.6-2.6c-5.1-2.5-7.2-1.9-14.1-1.9
			c-6.8,0-18.3,2.4-22,3.2c-1.9,1.2-4.3,2.5-7.5,5.8s-4.5,5.8-6.7,10.3c-2.2,4.4-3.8,9.2-4.7,14.2c-1,5-1.4,10.1-1.3,15.4
			c0.2,8.4,1.4,10.3,3.7,16.7s5.3,11.5,9,15.3c3.8,3.8,7.8,6.6,12.2,8.4C186.2,265.7,190.8,266.6,195.6,266.6z"/>
		<path id="A" class="st0" d="M288.3,262.7H321L295,160l-39.5,6.1L234,266h28l2.4-14.8h22.7L288.3,262.7z M267,231l5.8-41h1.9
			l7.3,40.5L267,231z"/>
		<path id="P" class="st0" d="M353.7,263v-37.7c11.8-1.5,21.8-6.1,30-13.6c8.9-8.3,13.6-18,14.2-29.1c0.7-11.4-3.4-20.3-12-27
			c-13-9.8-32.6-11.3-58.9-4.5V263H353.7z M353.8,198h-0.4l-0.5-27.9c6.7-0.6,11.3,1.5,14,6.3c2.7,4.7,2.7,9.6,0,14.5
			s-7.2,7.3-13.5,7.2L353.8,198z"/>
		<polygon id="E_00000103223937187678147450000017722912587921938587_" class="st0" points="469.1,262.9 469.1,234.4 431.7,234 
			431.9,214.6 452.8,214.7 452.9,191.8 431.5,191.2 432.6,171.6 466,171 464.5,143.7 402.4,147.7 403.8,262.9 		"/>
		<path id="S_00000042015273087499729700000008211470029240553865_" class="st0" d="M517.9,247.5h0.6c6.2-0.1,12.1-1.2,17.6-3.2
			s10.2-4.7,14.1-8.2s6.9-7.5,9.1-12.2s3.3-9.5,3.3-14.6c-0.1-5-1.3-9.2-3.5-12.8c-2.2-3.5-5-6.2-8.3-7.9s-7-3.1-11-4.2
			c-4-1.1-7.9-1.9-11.4-2.3c-3.6-0.4-6.8-1-9.6-1.7s-4.7-1.5-5.6-2.7c-1.5-2.7-1.9-5.3-1.2-7.8c0.8-2.5,2.3-4.7,4.6-6.5
			s4.3-2.5,6.1-2.2s3,1.4,3.8,3.2s1.1,3.4,0.8,4.8c-0.2,1.4-0.3,2.2-0.2,2.4l0,0l29.4-5c0.6-8.4-0.8-15.5-4-21.4
			c-4.9-9-12.9-13.9-24.1-14.8c-11.1-0.8-21.3,2.5-30.9,9.8c-11.6,9-17.9,21.1-18.7,36.5c-0.3,5,0.7,9.3,3.2,13.1
			c2.4,3.8,5.6,6.7,9.5,8.7s8.2,3.8,12.7,5.4c4.5,1.5,8.7,2.7,12.6,3.6l0.5,0.1c3.6,0.8,6.6,1.7,8.8,2.8c2.4,1.1,3.3,2.3,2.9,3.6
			c-0.8,2.8-3.6,4.2-8.5,4.2c-4.9,0.1-10.2-1-15.8-3.2c-5.6-2.2-10-4.7-12.9-7.5l0,0l-14.9,24.9c7,5,14.1,8.7,21.4,11.2
			s14,3.7,20.2,3.6L517.9,247.5z"/>
		<g id="crown-copy" transform="translate(143.000000, 0.000000)">
			<path id="Fill-1" class="st0" d="M85.4,39.8c-1.8,3.8-3.5,7.6-5.2,11.5c-0.4,0.8-0.7,1.7-1.1,2.5c-0.4,0.9-1,1.9-1.5,2.8
				c-1.1,1.7-2.5,3.2-4,4.4c-0.2,0.2-5,0-7.2,0c-12.7,0-9.4,0-35.7,0c-4.3,0-9.4,0-15.4,0c-0.5-1.7-2.8-6.9-3.3-8.6
				C10.2,46.1,8.3,40,6.2,33.9c-0.4-1.2-0.8-2.4-1.2-3.6c0.5-0.1,1.1-0.2,1.6-0.3c0,0,0.4,1.3,1,3.3c2,5.9,6.5,17.6,12.1,16.9
				c6.5-0.6,7.2-14.5,7-21.4c0-2.3-0.2-3.9-0.2-3.9c0.7,0,1.5-0.1,2.2-0.1c0,0,0.1,1.5,0.2,3.6c0.5,6.9,2.4,21.2,7.8,20.9
				c7.1-0.2,8.8-20.9,9.2-30.9C46,15.2,46,13,46,13l2,0.2c0,0-0.3,2.1-0.5,5.4c-0.7,10-1.1,30.8,5.8,32.1c5.4,1.2,8.8-13.1,10-19.8
				c0.4-2,0.6-3.3,0.6-3.3c0.7,0.1,1.5,0.3,2.2,0.4c0,0-0.4,1.4-0.8,3.4c-1.2,6.5-2.8,20,3.5,22.3c6.3,2.5,12.5-9,15.1-14.7
				c0.8-1.8,1.3-3,1.3-3c0.5,0.2,1,0.4,1.6,0.6C86.5,37.6,86,38.7,85.4,39.8z"/>
			<path id="Fill-3" class="st0" d="M70,26.8c-0.2,2.5-2.3,4.4-4.8,4.2c-2.5-0.2-4.4-2.3-4.2-4.8s2.3-4.4,4.8-4.2
				C68.3,22.2,70.1,24.3,70,26.8"/>
			<path id="Fill-3_00000054234620945358206400000018135116542068693672_" class="st0" d="M91,35.8c-0.2,2.5-2.3,4.4-4.8,4.2
				s-4.4-2.3-4.2-4.8c0.2-2.5,2.3-4.4,4.8-4.2C89.3,31.2,91.1,33.3,91,35.8"/>
			<path id="Fill-8" class="st0" d="M31,21.8c-0.2,2.5-2.3,4.4-4.8,4.2c-2.5-0.2-4.4-2.3-4.2-4.8c0.2-2.5,2.3-4.4,4.8-4.2
				C29.3,17.2,31.1,19.3,31,21.8"/>
			<path id="Fill-10" class="st0" d="M9,26.8c-0.2,2.5-2.3,4.4-4.8,4.2c-2.5-0.2-4.4-2.3-4.2-4.8c0.2-2.5,2.3-4.4,4.8-4.2
				C7.3,22.2,9.1,24.3,9,26.8"/>
			<path id="Fill-12" class="st0" d="M55,9c-0.3,4.7-4.3,8.2-9,7.9c-4.7-0.3-8.2-4.3-7.9-9s4.3-8.2,9-7.9C51.7,0.3,55.3,4.4,55,9"/>
		</g>
	</g>
</g>
<path id="Fill-19" class="st0" d="M514.6,348.9c0,0,3.6-6.2,8.5-6.1c1.8,0,3.2,1.4,3.2,3.2c0,1.7-1.4,3.1-2.6,3.1
	c1.2,0,2.5,1.4,2.4,3.2c0,1.7-1.5,3.1-3.3,3.1C518.1,355.2,514.6,348.9,514.6,348.9z M543.5,345.7c1.7-1.7,2.2-6.2-0.6-8.2
	c-2.8-1.9-5.9-1-6.8,1c-2.2-3.9,1-8.5,6.9-8.4c1.8,6.8,6.8,10.1,11.6,10.6c-5.5,2.3-9.4,8.9-9.4,8.9s3.6,6.8,9.1,9.3
	c-4.9,0.3-9.9,3.4-12,10.2c-5.9-0.1-8.9-4.8-6.6-8.6c0.8,2.1,3.9,3.1,6.8,1.3c2.8-1.8,2.5-6.4,0.9-8.1c-1.6-1.8-6.6-3-11.2-0.5
	c-1.1,0.6-2,1.5-2.7,2.6l0.2-12.8c0.7,1.1,1.5,2.1,2.6,2.7C536.8,348.5,541.8,347.4,543.5,345.7z M558.5,314.5
	c14.1-6.3,17.3,3.7,17.3,3.7s-4.1-1.3-6.3,1.9c-1.6,2.3-2.3,6,2.2,9.1c1.8,1.3,4.6,1,7.1-0.4c-0.6,3,0.1,5.5,1.3,7.5
	c-0.3,0-0.5,0-0.8-0.1c-7.8-0.1-14.3,6.1-14.4,13.8c-0.1,7.8,6.1,14.2,13.9,14.3c0.3,0,0.5,0,0.8,0c-1.3,1.9-2.1,4.4-1.6,7.4
	c-2.4-1.5-5.2-1.8-7.1-0.6c-4.6,3-4,6.7-2.5,9.1c2.1,3.2,6.3,2.1,6.3,2.1s-3.6,9.9-17.4,3.1c-9.4-4.7-7.6-15.6-3.9-17.5
	c1.7,6.5,9.2,4.2,10.1-0.2c0.4-2,0.6-6.3-3.7-8.1c2.2-0.5,3.9-2.4,3.9-4.7c0-2.7-1.9-5-3.7-5c1.8,0,3.9-2.1,3.9-4.9
	c0-2.3-1.6-4.3-3.7-4.8c4.4-1.7,4.4-6,4-7.9c-0.8-4.3-8.2-6.9-10.1-0.5C550.3,329.9,548.9,318.8,558.5,314.5z M586.6,318.6
	c-0.8,0.3-1.5,0.7-2.3,1.3c0-0.6,0.1-1.3,0-2c0-0.4-0.1-0.9-0.2-1.4C584.7,317.6,585.6,318.4,586.6,318.6z M578.4,358.9
	c-4.8-0.1-8.6-4.1-8.6-8.9c0.1-4.8,4.1-8.6,8.9-8.6c4.8,0.1,8.6,4.1,8.6,8.9S583.2,359,578.4,358.9z M600.7,329.4
	c3.1,3.2,4.9,9.4,1.9,12.6c-2.3-2.9-5.3-2.6-7.1-0.5c-1.6,1.8-1.4,7.2,3,9c-4.5,1.7-4.9,7-3.3,8.9c1.7,2.1,4.7,2.6,7.1-0.3
	c2.8,3.3,0.8,9.4-2.4,12.6c-3.7,3.7-9.8,5.1-13.2,3c-2.4-1.4-3.2-5.6-0.9-7.5c1,1.4,4.9,2.4,6.1-2c0.7-2.5-0.7-4.3-2.7-5.1
	c2.6-2.5,4.3-5.9,4.3-9.7c0.1-3.8-1.5-7.3-4-9.9c2.1-0.7,3.5-2.5,2.9-5c-1.1-4.4-5-3.5-6.1-2.2c-2.3-2-1.3-6.1,1.1-7.4
	C591.1,324,597.1,325.6,600.7,329.4z M611,348.3c0.1,0,0.3,0,0.4,0c-1.1,1.4-1.7,2.4-1.7,2.4s0.6,1,1.6,2.4c-0.1,0-0.3,0-0.4,0
	c-1.1,0-2,0.5-2.6,1.3c-1-1.6-2.5-3-4.4-3.8c2-0.7,3.5-2.1,4.6-3.7C609,347.7,609.9,348.2,611,348.3z M585.5,381.8
	c-1.1,0.2-2,1-2.5,2c0.1-0.5,0.2-0.9,0.2-1.4c0.1-0.7,0.1-1.3,0.1-2C584,381.1,584.7,381.5,585.5,381.8z M335.2,350.4l148.2,3.7v1.5
	c0,2.6,1.7,4.7,3.8,4.7c0.2,0,0.3,0,0.5-0.1c-0.5,1.4-0.8,2.8-0.7,4.1c0.3,5.6,4.2,7.5,7.5,7.3c3.3-0.1,5.9-3.5,5.6-6.5
	c-0.3-3.2-4.3-4-6-2.8c0.2-4.5,5.5-5.3,10.1-5.8c4.7-0.5,10.8,1.9,13,3.6c2.1,1.6,2.7,4.1,1.3,7.5c-1.4,3.3-5.7,3.8-7.6,1.5
	c3.2-0.3,3.4-4.3,3.3-5.4c-0.3-1.8-3-3.9-5.8-3.8c-5,0.2-6.4,6-5.1,9.8c1.5,4.4,6.9,7.7,13.4,6c4.8-1.3,7-6.8,7.8-9.7
	c0.3,0,0.5,0.1,0.8,0.1c1.4,0,2.8-0.6,3.7-1.7c0.3,2,0.9,4.1,2.1,6.1c2.9,4.9,8.5,5.4,11.4,5.3c0.6,9.4,7.9,19,20.4,19.9
	c11.7,0.8,17.2-4.6,19.3-9.8c0,0.1,0,0.2,0,0.3c0,2.5,1.9,4.6,4.4,4.6s4.5-1.9,4.6-4.4c0-1.7-0.8-3.1-2.2-3.9
	c6.2,0.5,13.3-3.3,16.4-7.4c4.9-6.2,5.2-12.9,4.7-16.6c0.3,0.1,0.6,0.2,0.9,0.2c1.5,0,2.8-1.2,2.9-2.7c2.2,2.4,5.2,4.7,8.7,4.7
	c2.7,0,5-2.1,5.1-4.9c0-2.7-1.9-5-3.7-5c1.8,0,3.9-2.2,3.9-4.9c0-2.7-2.1-5-4.9-5.1c-3.5-0.1-6.6,2.1-8.8,4.4c0-1.5-1.2-2.7-2.8-2.8
	c-0.3,0-0.6,0.1-0.9,0.2c0.7-3.7,0.6-10.4-4.1-16.8c-3-4.2-9.9-8.2-16.1-7.9c1.3-0.8,2.3-2.2,2.3-3.8c0-2.5-1.9-4.6-4.4-4.6
	s-4.5,1.9-4.6,4.4c0,0.1,0,0.2,0,0.3c-1.9-5.3-7.2-10.9-18.9-10.5c-12.5,0.5-20.2,9.8-21.1,19.1c-2.8-0.2-8.5,0.1-11.6,4.9
	c-1.2,1.9-1.9,4-2.3,6c-0.9-1.1-2.2-1.8-3.7-1.8c-0.3,0-0.5,0-0.8,0.1c-0.7-2.9-2.7-8.5-7.4-9.9c-6.5-2-12,1.1-13.6,5.5
	c-1.4,3.8-0.3,9.6,4.8,10c2.8,0.2,5.6-1.7,6-3.6c0.2-1.2,0.1-5.1-3.1-5.5c1.9-2.3,6.3-1.6,7.5,1.7c1.2,3.4,0.6,5.8-1.6,7.4
	s-8.5,3.8-13.1,3.1c-4.6-0.7-9.8-1.6-9.9-6.1c1.7,1.2,5.6,0.6,6.1-2.6c0.4-3-2.1-6.5-5.4-6.7c-3.3-0.3-7.2,1.4-7.8,7.1
	c-0.1,1.3,0,2.7,0.5,4.2c-0.2,0-0.3-0.1-0.5-0.1c-2.1,0-3.9,2-3.9,4.6v1.5l-190.6-4.5c-3.2-0.1-5.8,2.5-5.9,5.7s2.5,5.9,5.7,5.9
	l8.2,0.1l-0.6,32l-4.1-0.1l-0.1,8.2l12.2,0.2l0.7-40.2l4.9,0.1l-0.6,35.3l8.1,0.1l0.6-35.3l4.9,0.1l-0.7,40.2l12.2,0.2l0.1-8.2
	l-4.1-0.1L335.2,350.4z"/>
</svg>
